HIERARCHY
ROOT Hips
{
	OFFSET 53.346500 6.115134 96.202400
	CHANNELS 6 Xposition Yposition Zposition Xrotation Yrotation Zrotation
	JOINT spine
	{
		OFFSET 0.000000 -0.458068 7.965683
		CHANNELS 3 Xrotation Yrotation Zrotation
		JOINT spine1
		{
			OFFSET 0.000000 -0.000001 10.243103
			CHANNELS 3 Xrotation Yrotation Zrotation
			JOINT spine2
			{
				OFFSET 0.000000 -0.000001 9.814751
				CHANNELS 3 Xrotation Yrotation Zrotation
				JOINT Neck
				{
					OFFSET 0.000000 -1.201385 25.198593
					CHANNELS 3 Xrotation Yrotation Zrotation
					JOINT Head
					{
						OFFSET 0.000000 -0.000001 7.613144
						CHANNELS 3 Xrotation Yrotation Zrotation
						End Site
						{
							OFFSET 0.000000 6.077328 18.428101
						}
					}
				}
				JOINT RightShoulder
				{
					OFFSET -4.132702 0.575449 10.599197
					CHANNELS 3 Xrotation Yrotation Zrotation
					JOINT RightArm
					{
						OFFSET 0.000000 -0.000002 13.901794
						CHANNELS 3 Xrotation Yrotation Zrotation
						JOINT RightArmRoll
						{
							OFFSET 0.000000 -0.000001 7.017883
							CHANNELS 3 Xrotation Yrotation Zrotation
							JOINT RightForeArm
							{
								OFFSET 0.000000 -0.000003 20.440598
								CHANNELS 3 Xrotation Yrotation Zrotation
								JOINT RightForeArmRoll
								{
									OFFSET 0.000000 -0.000001 7.875153
									CHANNELS 3 Xrotation Yrotation Zrotation
									JOINT RightHand
									{
										OFFSET 0.000000 -0.000002 15.803696
										CHANNELS 3 Xrotation Yrotation Zrotation
										End Site
										{
											OFFSET 0.000000 0.000000 0.100006
										}
									}
								}
							}
						}
					}
				}
				JOINT LeftShoulder
				{
					OFFSET 4.132702 0.575449 10.599197
					CHANNELS 3 Xrotation Yrotation Zrotation
					JOINT LeftArm
					{
						OFFSET 0.000000 -0.000002 13.901794
						CHANNELS 3 Xrotation Yrotation Zrotation
						JOINT LeftArmRoll
						{
							OFFSET 0.000000 -0.000001 7.017883
							CHANNELS 3 Xrotation Yrotation Zrotation
							JOINT LeftForeArm
							{
								OFFSET 0.000000 -0.000003 20.440598
								CHANNELS 3 Xrotation Yrotation Zrotation
								JOINT LeftForeArmRoll
								{
									OFFSET 0.000000 -0.000001 7.875153
									CHANNELS 3 Xrotation Yrotation Zrotation
									JOINT LeftHand
									{
										OFFSET 0.000000 -0.000002 15.803696
										CHANNELS 3 Xrotation Yrotation Zrotation
										End Site
										{
											OFFSET 0.000000 0.000000 0.100006
										}
									}
								}
							}
						}
					}
				}
			}
		}
	}
	JOINT RightUpLeg
	{
		OFFSET -7.060482 1.086101 -1.294701
		CHANNELS 3 Xrotation Yrotation Zrotation
		JOINT RightUpLegRoll
		{
			OFFSET 0.000000 -0.000003 18.530800
			CHANNELS 3 Xrotation Yrotation Zrotation
			JOINT RightLeg
			{
				OFFSET 0.000000 0.000004 -22.947601
				CHANNELS 3 Xrotation Yrotation Zrotation
				JOINT RightLegRoll
				{
					OFFSET 0.000000 -0.000004 23.022598
					CHANNELS 3 Xrotation Yrotation Zrotation
					JOINT RightFoot
					{
						OFFSET 0.000000 -0.000003 19.162498
						CHANNELS 3 Xrotation Yrotation Zrotation
						JOINT RightToeBase
						{
							OFFSET 0.000000 -0.000003 16.018799
							CHANNELS 3 Xrotation Yrotation Zrotation
							End Site
							{
								OFFSET 0.006790 0.894206 7.757812
							}
						}
					}
				}
			}
		}
	}
	JOINT LeftUpLeg
	{
		OFFSET 7.060482 1.086101 -1.294701
		CHANNELS 3 Xrotation Yrotation Zrotation
		JOINT LeftUpLegRoll
		{
			OFFSET 0.000000 -0.000003 18.530899
			CHANNELS 3 Xrotation Yrotation Zrotation
			JOINT LeftLeg
			{
				OFFSET 0.000000 -0.000004 22.947495
				CHANNELS 3 Xrotation Yrotation Zrotation
				JOINT LeftLegRoll
				{
					OFFSET 0.000000 -0.000004 23.235504
					CHANNELS 3 Xrotation Yrotation Zrotation
					JOINT LeftFoot
					{
						OFFSET 0.000000 -0.000003 18.949600
						CHANNELS 3 Xrotation Yrotation Zrotation
						JOINT LeftToeBase
						{
							OFFSET 0.000000 -0.000002 16.018799
							CHANNELS 3 Xrotation Yrotation Zrotation
							End Site
							{
								OFFSET -0.030430 0.894205 7.757812
							}
						}
					}
				}
			}
		}
	}
}
MOTION
Frames: 4
Frame Time: 0.041667
55.070702 2.133523 79.658791 -2.385734 -3.319747 10.346666 -0.442277 -0.503553 0.287134 3.120901 -1.006315 0.575307 4.766057 -0.999353 0.587319 21.878672 29.433816 -8.651043 -15.673790 -23.986209 -8.385875 -12.791556 -9.001469 -12.034226 180.732707 -151.964647 243.357618 -0.000001 -0.000024 0.000002 63.395391 3.805129 1.518201 -0.000001 0.000006 -3.011721 -5.000209 -7.998746 0.000153 -9.910558 33.133821 9.860677 -148.690131 166.020302 82.691058 -0.000010 0.000008 -0.000004 72.365212 -7.038801 -1.786094 -0.000004 -0.000012 2.999999 -5.000212 7.998744 -0.000139 -18.149974 -153.883698 -1.286153 -179.999991 0.000004 -1.822001 129.240962 16.102627 6.379445 0.000001 -0.000001 6.550530 84.537087 5.392311 6.771251 26.405656 -7.340903 0.984138 -21.551007 158.429284 5.602527 -0.000021 -0.000004 -1.799891 -44.727685 -14.221980 -5.141909 0.000002 -0.000007 -3.855987 76.785731 -6.320127 -3.325697 27.049279 7.321535 -1.573915 
55.114796 2.140973 79.602890 -2.321558 -3.333746 10.410722 -0.447186 -0.488637 0.279867 3.110923 -0.976544 0.560653 4.756072 -0.969761 0.572310 21.621780 29.293609 -8.567338 -15.657727 -23.883715 -8.366999 -12.843547 -9.130182 -12.134424 180.586527 -152.071348 242.927808 -0.000002 -0.000023 -0.000000 63.566870 3.718813 1.510456 -0.000002 0.000006 -3.011718 -5.000210 -7.998747 0.000157 -9.893418 33.008453 9.824537 -148.582692 166.013840 82.554666 -0.000006 0.000008 -0.000004 72.468983 -7.019300 -1.817643 -0.000002 -0.000010 2.999999 -5.000213 7.998744 -0.000140 -18.197403 -153.844287 -1.289734 -179.999991 0.000004 -1.822003 129.264622 16.089170 6.373561 -0.000003 -0.000002 6.539960 84.501488 5.394431 6.756833 26.419549 -7.340222 0.998467 -21.635990 158.431292 5.635335 -0.000018 -0.000005 -1.795989 -44.611968 -14.209678 -5.106952 -0.000000 -0.000006 -3.809567 76.659550 -6.333056 -3.285776 27.065898 7.320722 -1.589408 
55.122097 2.160973 79.715591 -2.255540 -3.348159 10.477701 -0.454602 -0.473992 0.273569 3.095944 -0.947321 0.547915 4.741090 -0.940695 0.559222 21.406571 29.136699 -8.490441 -15.665502 -23.766072 -8.348744 -12.896786 -9.267707 -12.236946 180.446235 -152.173213 242.477890 0.000002 -0.000023 0.000003 63.727338 3.633242 1.497571 -0.000001 0.000004 -3.011720 -5.000209 -7.998745 0.000154 -9.861337 32.884660 9.767522 -148.467139 165.970837 82.413445 -0.000006 0.000009 -0.000002 72.576135 -6.999840 -1.850426 -0.000005 -0.000011 2.999998 -5.000212 7.998745 -0.000139 -18.211082 -153.801448 -1.270099 -179.999991 0.000004 -1.821005 129.333976 16.067253 6.358513 0.000000 -0.000003 6.527119 84.472631 5.397908 6.740768 26.425380 -7.339747 1.004547 -21.697510 158.433970 5.652539 -0.000020 -0.000004 -1.792200 -44.461635 -14.189335 -5.064567 0.000002 -0.000007 -3.759680 76.533472 -6.347092 -3.243405 27.083013 7.319734 -1.605788 
55.160797 2.156262 79.659294 -2.185427 -3.364806 10.550367 -0.464923 -0.458536 0.267891 3.075173 -0.916486 0.536402 4.720317 -0.909998 0.547341 21.237688 28.956433 -8.422034 -15.706396 -23.632465 -8.333910 -12.951979 -9.418699 -12.343606 180.302432 -152.271636 241.994313 0.000001 -0.000023 0.000003 63.884050 3.545752 1.479543 -0.000001 0.000003 -3.011719 -5.000211 -7.998744 0.000158 -9.813407 32.754551 9.687678 -148.340166 165.888247 82.265626 -0.000007 0.000008 -0.000003 72.686921 -6.980191 -1.884785 -0.000006 -0.000010 2.999999 -5.000211 7.998746 -0.000140 -18.193034 -153.751561 -1.226020 -179.999991 0.000005 -1.818996 129.449119 16.035974 6.333625 -0.000002 -0.000004 6.511080 84.447612 5.402817 6.722089 26.423946 -7.339440 1.003337 -21.738834 158.438641 5.657149 -0.000020 -0.000005 -1.788190 -44.272036 -14.160724 -5.014135 0.000001 -0.000004 -3.703338 76.399136 -6.363355 -3.196205 27.106050 7.318279 -1.628246 
